<svg width="625" height="460" viewBox="0 0 625 460" fill="none" xmlns="http://www.w3.org/2000/svg">
<g filter="url(#filter0_d_518_25468)">
<g clip-path="url(#clip0_518_25468)">
<path d="M16 20C16 15.5817 19.5817 12 24 12H601C605.418 12 609 15.5817 609 20V432C609 436.418 605.418 440 601 440H24C19.5817 440 16 436.418 16 432V20Z" fill="white"/>
<path d="M16 20C16 15.5817 19.5817 12 24 12H601C605.418 12 609 15.5817 609 20V52H16V20Z" fill="#F3F6FB"/>
<path d="M40.9072 27.0469V37H39.1914L34.7275 29.8701V37H33.0117V27.0469H34.7275L39.2051 34.1904V27.0469H40.9072ZM45.9079 37.1367C45.361 37.1367 44.8665 37.0479 44.4245 36.8701C43.987 36.6878 43.6133 36.4349 43.3034 36.1113C42.998 35.7878 42.7633 35.4072 42.5993 34.9697C42.4352 34.5322 42.3532 34.0605 42.3532 33.5547V33.2812C42.3532 32.7025 42.4375 32.1784 42.6061 31.709C42.7747 31.2396 43.0094 30.8385 43.3102 30.5059C43.611 30.1686 43.9664 29.9111 44.3766 29.7334C44.7868 29.5557 45.2311 29.4668 45.7096 29.4668C46.2383 29.4668 46.7008 29.5557 47.0973 29.7334C47.4938 29.9111 47.8219 30.1618 48.0817 30.4854C48.346 30.8044 48.542 31.1849 48.6696 31.627C48.8017 32.069 48.8678 32.5566 48.8678 33.0898V33.7939H43.153V32.6113H47.2409V32.4814C47.2317 32.1852 47.1725 31.9072 47.0631 31.6475C46.9583 31.3877 46.7965 31.1781 46.5778 31.0186C46.359 30.859 46.0674 30.7793 45.7028 30.7793C45.4293 30.7793 45.1855 30.8385 44.9713 30.957C44.7617 31.071 44.5862 31.2373 44.445 31.4561C44.3037 31.6748 44.1943 31.9391 44.1168 32.249C44.0439 32.5544 44.0075 32.8984 44.0075 33.2812V33.5547C44.0075 33.8783 44.0508 34.179 44.1373 34.457C44.2285 34.7305 44.3607 34.9697 44.5338 35.1748C44.707 35.3799 44.9166 35.5417 45.1627 35.6602C45.4088 35.7741 45.6891 35.8311 46.0036 35.8311C46.4 35.8311 46.7532 35.7513 47.0631 35.5918C47.373 35.4323 47.6419 35.2067 47.8698 34.915L48.7379 35.7559C48.5784 35.9883 48.3711 36.2116 48.1159 36.4258C47.8607 36.6354 47.5485 36.8063 47.1793 36.9385C46.8148 37.0706 46.3909 37.1367 45.9079 37.1367ZM52.0227 35.3594L53.7317 29.6035H54.7845L54.4973 31.3262L52.7747 37H51.8313L52.0227 35.3594ZM51.0179 29.6035L52.3509 35.3867L52.4602 37H51.4075L49.4046 29.6035H51.0179ZM56.3841 35.3184L57.6761 29.6035H59.2825L57.2864 37H56.2337L56.3841 35.3184ZM54.9622 29.6035L56.6507 35.291L56.8626 37H55.9192L54.1761 31.3193L53.8889 29.6035H54.9622ZM64.4713 27.0469H66.0025L68.8804 34.7236L71.7515 27.0469H73.2828L69.482 37H68.2652L64.4713 27.0469ZM63.774 27.0469H65.23L65.483 33.6914V37H63.774V27.0469ZM72.524 27.0469H73.9869V37H72.2711V33.6914L72.524 27.0469ZM78.9807 37.1367C78.4338 37.1367 77.9393 37.0479 77.4973 36.8701C77.0598 36.6878 76.6861 36.4349 76.3762 36.1113C76.0708 35.7878 75.8361 35.4072 75.6721 34.9697C75.508 34.5322 75.426 34.0605 75.426 33.5547V33.2812C75.426 32.7025 75.5103 32.1784 75.6789 31.709C75.8475 31.2396 76.0822 30.8385 76.383 30.5059C76.6838 30.1686 77.0393 29.9111 77.4494 29.7334C77.8596 29.5557 78.3039 29.4668 78.7824 29.4668C79.3111 29.4668 79.7736 29.5557 80.1701 29.7334C80.5666 29.9111 80.8947 30.1618 81.1545 30.4854C81.4188 30.8044 81.6148 31.1849 81.7424 31.627C81.8745 32.069 81.9406 32.5566 81.9406 33.0898V33.7939H76.2258V32.6113H80.3137V32.4814C80.3046 32.1852 80.2453 31.9072 80.1359 31.6475C80.0311 31.3877 79.8693 31.1781 79.6506 31.0186C79.4318 30.859 79.1402 30.7793 78.7756 30.7793C78.5021 30.7793 78.2583 30.8385 78.0441 30.957C77.8345 31.071 77.659 31.2373 77.5178 31.4561C77.3765 31.6748 77.2671 31.9391 77.1896 32.249C77.1167 32.5544 77.0803 32.8984 77.0803 33.2812V33.5547C77.0803 33.8783 77.1236 34.179 77.2102 34.457C77.3013 34.7305 77.4335 34.9697 77.6066 35.1748C77.7798 35.3799 77.9895 35.5417 78.2355 35.6602C78.4816 35.7741 78.7619 35.8311 79.0764 35.8311C79.4729 35.8311 79.826 35.7513 80.1359 35.5918C80.4458 35.4323 80.7147 35.2067 80.9426 34.915L81.8107 35.7559C81.6512 35.9883 81.4439 36.2116 81.1887 36.4258C80.9335 36.6354 80.6213 36.8063 80.2521 36.9385C79.8876 37.0706 79.4637 37.1367 78.9807 37.1367ZM87.2352 34.9971C87.2352 34.833 87.1942 34.6849 87.1121 34.5527C87.0301 34.416 86.8729 34.293 86.6405 34.1836C86.4126 34.0742 86.0754 33.974 85.6287 33.8828C85.2368 33.7962 84.8768 33.6937 84.5487 33.5752C84.2251 33.4521 83.9471 33.304 83.7147 33.1309C83.4823 32.9577 83.3023 32.7526 83.1746 32.5156C83.047 32.2786 82.9832 32.0052 82.9832 31.6953C82.9832 31.3945 83.0493 31.1097 83.1815 30.8408C83.3136 30.5719 83.5028 30.335 83.7489 30.1299C83.995 29.9248 84.2935 29.763 84.6444 29.6445C84.9998 29.526 85.3963 29.4668 85.8338 29.4668C86.4536 29.4668 86.9845 29.5716 87.4266 29.7812C87.8732 29.9863 88.215 30.2666 88.452 30.6221C88.689 30.973 88.8075 31.3695 88.8075 31.8115H87.16C87.16 31.6156 87.1099 31.4333 87.0096 31.2646C86.9139 31.0915 86.7681 30.9525 86.5721 30.8477C86.3761 30.7383 86.1301 30.6836 85.8338 30.6836C85.5513 30.6836 85.3166 30.7292 85.1297 30.8203C84.9474 30.9069 84.8107 31.0208 84.7196 31.1621C84.633 31.3034 84.5897 31.4583 84.5897 31.627C84.5897 31.75 84.6125 31.8617 84.658 31.9619C84.7082 32.0576 84.7902 32.1465 84.9041 32.2285C85.0181 32.306 85.173 32.3789 85.369 32.4473C85.5695 32.5156 85.8202 32.5817 86.1209 32.6455C86.686 32.764 87.1714 32.9167 87.577 33.1035C87.9871 33.2858 88.3016 33.5228 88.5204 33.8145C88.7391 34.1016 88.8485 34.4661 88.8485 34.9082C88.8485 35.2363 88.7778 35.5371 88.6366 35.8105C88.4998 36.0794 88.2993 36.3141 88.035 36.5146C87.7707 36.7106 87.4539 36.8633 87.0848 36.9727C86.7202 37.082 86.3101 37.1367 85.8543 37.1367C85.1844 37.1367 84.617 37.0182 84.1522 36.7812C83.6873 36.5397 83.3342 36.2321 83.0926 35.8584C82.8556 35.4801 82.7371 35.0882 82.7371 34.6826H84.3299C84.3482 34.988 84.4325 35.2318 84.5829 35.4141C84.7378 35.5918 84.9292 35.7217 85.1571 35.8037C85.3895 35.8812 85.6287 35.9199 85.8748 35.9199C86.1711 35.9199 86.4194 35.8812 86.62 35.8037C86.8205 35.7217 86.9732 35.6123 87.078 35.4756C87.1828 35.3343 87.2352 35.1748 87.2352 34.9971ZM94.3003 34.9971C94.3003 34.833 94.2593 34.6849 94.1772 34.5527C94.0952 34.416 93.938 34.293 93.7055 34.1836C93.4777 34.0742 93.1404 33.974 92.6938 33.8828C92.3019 33.7962 91.9419 33.6937 91.6138 33.5752C91.2902 33.4521 91.0122 33.304 90.7798 33.1309C90.5473 32.9577 90.3673 32.7526 90.2397 32.5156C90.1121 32.2786 90.0483 32.0052 90.0483 31.6953C90.0483 31.3945 90.1144 31.1097 90.2466 30.8408C90.3787 30.5719 90.5679 30.335 90.8139 30.1299C91.06 29.9248 91.3585 29.763 91.7095 29.6445C92.0649 29.526 92.4614 29.4668 92.8989 29.4668C93.5187 29.4668 94.0496 29.5716 94.4917 29.7812C94.9383 29.9863 95.2801 30.2666 95.5171 30.6221C95.754 30.973 95.8725 31.3695 95.8725 31.8115H94.2251C94.2251 31.6156 94.1749 31.4333 94.0747 31.2646C93.979 31.0915 93.8332 30.9525 93.6372 30.8477C93.4412 30.7383 93.1951 30.6836 92.8989 30.6836C92.6164 30.6836 92.3817 30.7292 92.1948 30.8203C92.0125 30.9069 91.8758 31.0208 91.7846 31.1621C91.6981 31.3034 91.6548 31.4583 91.6548 31.627C91.6548 31.75 91.6776 31.8617 91.7231 31.9619C91.7733 32.0576 91.8553 32.1465 91.9692 32.2285C92.0832 32.306 92.2381 32.3789 92.4341 32.4473C92.6346 32.5156 92.8852 32.5817 93.186 32.6455C93.7511 32.764 94.2365 32.9167 94.6421 33.1035C95.0522 33.2858 95.3667 33.5228 95.5854 33.8145C95.8042 34.1016 95.9136 34.4661 95.9136 34.9082C95.9136 35.2363 95.8429 35.5371 95.7016 35.8105C95.5649 36.0794 95.3644 36.3141 95.1001 36.5146C94.8358 36.7106 94.519 36.8633 94.1499 36.9727C93.7853 37.082 93.3751 37.1367 92.9194 37.1367C92.2495 37.1367 91.6821 37.0182 91.2173 36.7812C90.7524 36.5397 90.3992 36.2321 90.1577 35.8584C89.9207 35.4801 89.8022 35.0882 89.8022 34.6826H91.395C91.4132 34.988 91.4975 35.2318 91.6479 35.4141C91.8029 35.5918 91.9943 35.7217 92.2221 35.8037C92.4546 35.8812 92.6938 35.9199 92.9399 35.9199C93.2361 35.9199 93.4845 35.8812 93.685 35.8037C93.8856 35.7217 94.0382 35.6123 94.143 35.4756C94.2479 35.3343 94.3003 35.1748 94.3003 34.9971ZM101.386 35.5166V31.9893C101.386 31.7249 101.338 31.4971 101.242 31.3057C101.147 31.1143 101.001 30.9661 100.805 30.8613C100.613 30.7565 100.372 30.7041 100.08 30.7041C99.8113 30.7041 99.5789 30.7497 99.3829 30.8408C99.187 30.932 99.0343 31.055 98.9249 31.21C98.8155 31.3649 98.7609 31.5404 98.7609 31.7363H97.1202C97.1202 31.4447 97.1909 31.1621 97.3321 30.8887C97.4734 30.6152 97.6785 30.3714 97.9474 30.1572C98.2163 29.943 98.5375 29.7744 98.9112 29.6514C99.2849 29.5283 99.7042 29.4668 100.169 29.4668C100.725 29.4668 101.217 29.5602 101.646 29.7471C102.079 29.9339 102.418 30.2165 102.664 30.5947C102.915 30.9684 103.04 31.4378 103.04 32.0029V35.291C103.04 35.6283 103.063 35.9313 103.109 36.2002C103.159 36.4645 103.229 36.6947 103.32 36.8906V37H101.632C101.554 36.8223 101.493 36.5967 101.447 36.3232C101.406 36.0452 101.386 35.7764 101.386 35.5166ZM101.625 32.502L101.639 33.5205H100.456C100.151 33.5205 99.882 33.5501 99.6495 33.6094C99.4171 33.6641 99.2234 33.7461 99.0685 33.8555C98.9135 33.9648 98.7973 34.097 98.7198 34.252C98.6424 34.4069 98.6036 34.5824 98.6036 34.7783C98.6036 34.9743 98.6492 35.1543 98.7403 35.3184C98.8315 35.4779 98.9637 35.6032 99.1368 35.6943C99.3146 35.7855 99.5288 35.8311 99.7794 35.8311C100.117 35.8311 100.411 35.7627 100.661 35.626C100.916 35.4847 101.117 35.3138 101.263 35.1133C101.409 34.9082 101.486 34.7145 101.495 34.5322L102.028 35.2637C101.974 35.4505 101.88 35.651 101.748 35.8652C101.616 36.0794 101.443 36.2845 101.229 36.4805C101.019 36.6719 100.766 36.8291 100.47 36.9521C100.178 37.0752 99.8409 37.1367 99.4581 37.1367C98.975 37.1367 98.5444 37.041 98.1661 36.8496C97.7879 36.6536 97.4917 36.3916 97.2775 36.0635C97.0633 35.7308 96.9562 35.3548 96.9562 34.9355C96.9562 34.5436 97.0291 34.1973 97.1749 33.8965C97.3253 33.5911 97.5441 33.3359 97.8312 33.1309C98.1228 32.9258 98.4783 32.7708 98.8976 32.666C99.3168 32.5566 99.7954 32.502 100.333 32.502H101.625ZM109.36 29.6035H110.857V36.7949C110.857 37.4603 110.716 38.0254 110.433 38.4902C110.151 38.9551 109.757 39.3083 109.251 39.5498C108.745 39.7959 108.159 39.9189 107.494 39.9189C107.211 39.9189 106.897 39.8779 106.551 39.7959C106.209 39.7139 105.876 39.5817 105.552 39.3994C105.233 39.2217 104.967 38.987 104.753 38.6953L105.525 37.7246C105.789 38.0391 106.081 38.2692 106.4 38.415C106.719 38.5609 107.054 38.6338 107.405 38.6338C107.783 38.6338 108.105 38.5632 108.369 38.4219C108.638 38.2852 108.845 38.0824 108.991 37.8135C109.137 37.5446 109.21 37.2165 109.21 36.8291V31.2783L109.36 29.6035ZM104.336 33.3838V33.2402C104.336 32.6797 104.404 32.1693 104.541 31.709C104.677 31.2441 104.873 30.8454 105.129 30.5127C105.384 30.1755 105.694 29.918 106.058 29.7402C106.423 29.5579 106.835 29.4668 107.296 29.4668C107.774 29.4668 108.182 29.5534 108.519 29.7266C108.861 29.8997 109.146 30.1481 109.374 30.4717C109.602 30.7907 109.779 31.1735 109.907 31.6201C110.039 32.0622 110.137 32.5544 110.201 33.0967V33.5547C110.142 34.0833 110.041 34.5664 109.9 35.0039C109.759 35.4414 109.572 35.8197 109.34 36.1387C109.107 36.4577 108.82 36.7038 108.478 36.877C108.141 37.0501 107.742 37.1367 107.282 37.1367C106.831 37.1367 106.423 37.0433 106.058 36.8564C105.698 36.6696 105.388 36.4076 105.129 36.0703C104.873 35.7331 104.677 35.3366 104.541 34.8809C104.404 34.4206 104.336 33.9215 104.336 33.3838ZM105.983 33.2402V33.3838C105.983 33.721 106.015 34.0355 106.079 34.3271C106.147 34.6188 106.25 34.8763 106.386 35.0996C106.528 35.3184 106.705 35.4915 106.92 35.6191C107.138 35.7422 107.396 35.8037 107.692 35.8037C108.08 35.8037 108.396 35.7217 108.642 35.5576C108.893 35.3936 109.084 35.1725 109.217 34.8945C109.353 34.612 109.449 34.2975 109.504 33.9512V32.7139C109.476 32.445 109.419 32.1943 109.333 31.9619C109.251 31.7295 109.139 31.5267 108.998 31.3535C108.857 31.1758 108.679 31.0391 108.465 30.9434C108.25 30.8431 107.997 30.793 107.706 30.793C107.41 30.793 107.152 30.8568 106.933 30.9844C106.715 31.112 106.535 31.2874 106.393 31.5107C106.257 31.734 106.154 31.9938 106.086 32.29C106.017 32.5863 105.983 32.903 105.983 33.2402ZM115.687 37.1367C115.14 37.1367 114.646 37.0479 114.204 36.8701C113.766 36.6878 113.392 36.4349 113.082 36.1113C112.777 35.7878 112.542 35.4072 112.378 34.9697C112.214 34.5322 112.132 34.0605 112.132 33.5547V33.2812C112.132 32.7025 112.217 32.1784 112.385 31.709C112.554 31.2396 112.788 30.8385 113.089 30.5059C113.39 30.1686 113.746 29.9111 114.156 29.7334C114.566 29.5557 115.01 29.4668 115.489 29.4668C116.017 29.4668 116.48 29.5557 116.876 29.7334C117.273 29.9111 117.601 30.1618 117.861 30.4854C118.125 30.8044 118.321 31.1849 118.449 31.627C118.581 32.069 118.647 32.5566 118.647 33.0898V33.7939H112.932V32.6113H117.02V32.4814C117.011 32.1852 116.952 31.9072 116.842 31.6475C116.737 31.3877 116.576 31.1781 116.357 31.0186C116.138 30.859 115.846 30.7793 115.482 30.7793C115.208 30.7793 114.965 30.8385 114.75 30.957C114.541 31.071 114.365 31.2373 114.224 31.4561C114.083 31.6748 113.973 31.9391 113.896 32.249C113.823 32.5544 113.787 32.8984 113.787 33.2812V33.5547C113.787 33.8783 113.83 34.179 113.916 34.457C114.008 34.7305 114.14 34.9697 114.313 35.1748C114.486 35.3799 114.696 35.5417 114.942 35.6602C115.188 35.7741 115.468 35.8311 115.783 35.8311C116.179 35.8311 116.532 35.7513 116.842 35.5918C117.152 35.4323 117.421 35.2067 117.649 34.915L118.517 35.7559C118.357 35.9883 118.15 36.2116 117.895 36.4258C117.64 36.6354 117.328 36.8063 116.958 36.9385C116.594 37.0706 116.17 37.1367 115.687 37.1367Z" fill="#091F46"/>
<path d="M535.75 35.2085H545.75V37.2085H535.75V35.2085Z" fill="white" fill-opacity="0.6"/>
<path d="M570 31.4444V27H565.556L567.383 28.8278L561.828 34.3833L560 32.5556V37H564.444L562.617 35.1722L568.172 29.6167L570 31.4444Z" fill="white" fill-opacity="0.6"/>
<g clip-path="url(#clip1_518_25468)">
<path d="M585.667 27L584 28.6667L587.333 32L584 35.3333L585.667 37L589 33.6667L592.333 37L594 35.3333L590.667 32L594 28.6667L592.333 27L589 30.3333L585.667 27Z" fill="white" fill-opacity="0.6"/>
</g>
<rect width="593" height="568" transform="translate(16 52)" fill="white"/>
<path d="M551.164 71.835H552.477C552.408 72.4639 552.228 73.0267 551.937 73.5234C551.645 74.0202 551.232 74.4144 550.699 74.7061C550.166 74.9932 549.501 75.1367 548.703 75.1367C548.12 75.1367 547.589 75.0273 547.11 74.8086C546.636 74.5898 546.229 74.2799 545.887 73.8789C545.545 73.4733 545.281 72.988 545.094 72.4229C544.911 71.8532 544.82 71.2197 544.82 70.5225V69.5312C544.82 68.834 544.911 68.2028 545.094 67.6377C545.281 67.068 545.547 66.5804 545.894 66.1748C546.244 65.7692 546.666 65.457 547.158 65.2383C547.65 65.0195 548.204 64.9102 548.819 64.9102C549.571 64.9102 550.207 65.0514 550.727 65.334C551.246 65.6165 551.649 66.0085 551.937 66.5098C552.228 67.0065 552.408 67.583 552.477 68.2393H551.164C551.1 67.7744 550.982 67.3757 550.809 67.043C550.635 66.7057 550.389 66.446 550.07 66.2637C549.751 66.0814 549.334 65.9902 548.819 65.9902C548.377 65.9902 547.988 66.0745 547.65 66.2432C547.318 66.4118 547.037 66.651 546.81 66.9609C546.586 67.2708 546.418 67.6423 546.304 68.0752C546.19 68.5081 546.133 68.9889 546.133 69.5176V70.5225C546.133 71.0101 546.183 71.4681 546.283 71.8965C546.388 72.3249 546.545 72.7008 546.755 73.0244C546.965 73.348 547.231 73.6032 547.555 73.79C547.878 73.9723 548.261 74.0635 548.703 74.0635C549.264 74.0635 549.71 73.9746 550.043 73.7969C550.376 73.6191 550.626 73.3639 550.795 73.0312C550.968 72.6986 551.091 72.2998 551.164 71.835ZM557.043 74.0977C557.344 74.0977 557.622 74.0361 557.877 73.9131C558.132 73.79 558.342 73.6214 558.506 73.4072C558.67 73.1885 558.763 72.9401 558.786 72.6621H559.989C559.966 73.0996 559.818 73.5075 559.545 73.8857C559.276 74.2594 558.923 74.5625 558.485 74.7949C558.048 75.0228 557.567 75.1367 557.043 75.1367C556.487 75.1367 556.002 75.0387 555.587 74.8428C555.177 74.6468 554.835 74.3779 554.562 74.0361C554.293 73.6943 554.09 73.3024 553.953 72.8604C553.821 72.4137 553.755 71.9421 553.755 71.4453V71.1582C553.755 70.6615 553.821 70.1921 553.953 69.75C554.09 69.3034 554.293 68.9092 554.562 68.5674C554.835 68.2256 555.177 67.9567 555.587 67.7607C556.002 67.5648 556.487 67.4668 557.043 67.4668C557.622 67.4668 558.128 67.5853 558.561 67.8223C558.993 68.0547 559.333 68.3737 559.579 68.7793C559.83 69.1803 559.966 69.6361 559.989 70.1465H558.786C558.763 69.8411 558.677 69.5654 558.526 69.3193C558.381 69.0732 558.18 68.8773 557.925 68.7314C557.674 68.5811 557.38 68.5059 557.043 68.5059C556.656 68.5059 556.33 68.5833 556.065 68.7383C555.806 68.8887 555.598 69.0938 555.443 69.3535C555.293 69.6087 555.184 69.8936 555.115 70.208C555.051 70.5179 555.02 70.8346 555.02 71.1582V71.4453C555.02 71.7689 555.051 72.0879 555.115 72.4023C555.179 72.7168 555.286 73.0016 555.437 73.2568C555.591 73.512 555.799 73.7171 556.059 73.8721C556.323 74.0225 556.651 74.0977 557.043 74.0977Z" fill="black" fill-opacity="0.54"/>
<path d="M569.703 70.3447H567.181L567.167 69.2852H569.457C569.835 69.2852 570.166 69.2214 570.448 69.0938C570.731 68.9661 570.95 68.7839 571.104 68.5469C571.264 68.3053 571.344 68.0182 571.344 67.6855C571.344 67.321 571.273 67.0247 571.132 66.7969C570.995 66.5645 570.783 66.3958 570.496 66.291C570.214 66.1816 569.854 66.127 569.416 66.127H567.475V75H566.155V65.0469H569.416C569.926 65.0469 570.382 65.0993 570.783 65.2041C571.184 65.3044 571.524 65.4639 571.802 65.6826C572.084 65.8968 572.299 66.1702 572.444 66.5029C572.59 66.8356 572.663 67.2344 572.663 67.6992C572.663 68.1094 572.558 68.4808 572.349 68.8135C572.139 69.1416 571.847 69.4105 571.474 69.6201C571.104 69.8298 570.672 69.9642 570.175 70.0234L569.703 70.3447ZM569.642 75H566.661L567.406 73.9268H569.642C570.061 73.9268 570.416 73.8538 570.708 73.708C571.004 73.5622 571.23 73.3571 571.385 73.0928C571.54 72.8239 571.617 72.5072 571.617 72.1426C571.617 71.7734 571.551 71.4544 571.419 71.1855C571.287 70.9167 571.079 70.7093 570.797 70.5635C570.514 70.4176 570.15 70.3447 569.703 70.3447H567.823L567.837 69.2852H570.407L570.688 69.668C571.166 69.709 571.572 69.8457 571.904 70.0781C572.237 70.306 572.49 70.5977 572.663 70.9531C572.841 71.3086 572.93 71.7005 572.93 72.1289C572.93 72.7487 572.793 73.2728 572.52 73.7012C572.251 74.125 571.87 74.4486 571.378 74.6719C570.886 74.8906 570.307 75 569.642 75ZM577.646 74.0977C577.947 74.0977 578.225 74.0361 578.48 73.9131C578.736 73.79 578.945 73.6214 579.109 73.4072C579.273 73.1885 579.367 72.9401 579.39 72.6621H580.593C580.57 73.0996 580.422 73.5075 580.148 73.8857C579.88 74.2594 579.526 74.5625 579.089 74.7949C578.651 75.0228 578.171 75.1367 577.646 75.1367C577.09 75.1367 576.605 75.0387 576.19 74.8428C575.78 74.6468 575.438 74.3779 575.165 74.0361C574.896 73.6943 574.693 73.3024 574.557 72.8604C574.424 72.4137 574.358 71.9421 574.358 71.4453V71.1582C574.358 70.6615 574.424 70.1921 574.557 69.75C574.693 69.3034 574.896 68.9092 575.165 68.5674C575.438 68.2256 575.78 67.9567 576.19 67.7607C576.605 67.5648 577.09 67.4668 577.646 67.4668C578.225 67.4668 578.731 67.5853 579.164 67.8223C579.597 68.0547 579.937 68.3737 580.183 68.7793C580.433 69.1803 580.57 69.6361 580.593 70.1465H579.39C579.367 69.8411 579.28 69.5654 579.13 69.3193C578.984 69.0732 578.784 68.8773 578.528 68.7314C578.278 68.5811 577.984 68.5059 577.646 68.5059C577.259 68.5059 576.933 68.5833 576.669 68.7383C576.409 68.8887 576.202 69.0938 576.047 69.3535C575.896 69.6087 575.787 69.8936 575.719 70.208C575.655 70.5179 575.623 70.8346 575.623 71.1582V71.4453C575.623 71.7689 575.655 72.0879 575.719 72.4023C575.783 72.7168 575.89 73.0016 576.04 73.2568C576.195 73.512 576.402 73.7171 576.662 73.8721C576.926 74.0225 577.255 74.0977 577.646 74.0977ZM584.975 74.0977C585.275 74.0977 585.553 74.0361 585.809 73.9131C586.064 73.79 586.273 73.6214 586.438 73.4072C586.602 73.1885 586.695 72.9401 586.718 72.6621H587.921C587.898 73.0996 587.75 73.5075 587.477 73.8857C587.208 74.2594 586.854 74.5625 586.417 74.7949C585.979 75.0228 585.499 75.1367 584.975 75.1367C584.419 75.1367 583.933 75.0387 583.519 74.8428C583.108 74.6468 582.767 74.3779 582.493 74.0361C582.224 73.6943 582.021 73.3024 581.885 72.8604C581.753 72.4137 581.687 71.9421 581.687 71.4453V71.1582C581.687 70.6615 581.753 70.1921 581.885 69.75C582.021 69.3034 582.224 68.9092 582.493 68.5674C582.767 68.2256 583.108 67.9567 583.519 67.7607C583.933 67.5648 584.419 67.4668 584.975 67.4668C585.553 67.4668 586.059 67.5853 586.492 67.8223C586.925 68.0547 587.265 68.3737 587.511 68.7793C587.761 69.1803 587.898 69.6361 587.921 70.1465H586.718C586.695 69.8411 586.608 69.5654 586.458 69.3193C586.312 69.0732 586.112 68.8773 585.856 68.7314C585.606 68.5811 585.312 68.5059 584.975 68.5059C584.587 68.5059 584.261 68.5833 583.997 68.7383C583.737 68.8887 583.53 69.0938 583.375 69.3535C583.225 69.6087 583.115 69.8936 583.047 70.208C582.983 70.5179 582.951 70.8346 582.951 71.1582V71.4453C582.951 71.7689 582.983 72.0879 583.047 72.4023C583.111 72.7168 583.218 73.0016 583.368 73.2568C583.523 73.512 583.73 73.7171 583.99 73.8721C584.255 74.0225 584.583 74.0977 584.975 74.0977Z" fill="black" fill-opacity="0.54"/>
<path d="M32 123H593" stroke="#EDEFF1"/>
<path d="M32 87H593" stroke="#EDEFF1"/>
</g>
<path d="M16.5 20C16.5 15.8579 19.8579 12.5 24 12.5H601C605.142 12.5 608.5 15.8579 608.5 20V432C608.5 436.142 605.142 439.5 601 439.5H24C19.8579 439.5 16.5 436.142 16.5 432V20Z" stroke="black" stroke-opacity="0.04"/>
</g>
<rect x="32" y="388" width="104" height="36" rx="18" fill="#1A73E8"/>
<rect x="104" y="388" width="1" height="36" fill="#185ABC"/>
<path d="M58.626 408.437C58.626 408.231 58.5941 408.049 58.5303 407.89C58.4711 407.73 58.364 407.584 58.209 407.452C58.0541 407.32 57.8353 407.192 57.5528 407.069C57.2748 406.942 56.9193 406.812 56.4864 406.68C56.0124 406.534 55.5749 406.372 55.1739 406.194C54.7774 406.012 54.431 405.802 54.1348 405.565C53.8386 405.324 53.6084 405.048 53.4444 404.738C53.2803 404.424 53.1983 404.062 53.1983 403.651C53.1983 403.246 53.2826 402.877 53.4512 402.544C53.6244 402.211 53.8682 401.924 54.1827 401.683C54.5017 401.437 54.8776 401.247 55.3106 401.115C55.7435 400.979 56.222 400.91 56.7461 400.91C57.4844 400.91 58.1202 401.047 58.6534 401.32C59.1911 401.594 59.6036 401.961 59.8907 402.421C60.1823 402.881 60.3282 403.389 60.3282 403.945H58.626C58.626 403.617 58.5554 403.328 58.4141 403.077C58.2774 402.822 58.0677 402.621 57.7852 402.476C57.5072 402.33 57.154 402.257 56.7256 402.257C56.32 402.257 55.9828 402.318 55.7139 402.441C55.445 402.564 55.2445 402.731 55.1123 402.94C54.9802 403.15 54.9141 403.387 54.9141 403.651C54.9141 403.838 54.9574 404.009 55.044 404.164C55.1306 404.314 55.2627 404.456 55.4405 404.588C55.6182 404.715 55.8415 404.836 56.1104 404.95C56.3793 405.064 56.696 405.174 57.0606 405.278C57.612 405.442 58.0928 405.625 58.503 405.825C58.9131 406.021 59.2549 406.244 59.5284 406.495C59.8018 406.746 60.0069 407.031 60.1436 407.35C60.2803 407.664 60.3487 408.022 60.3487 408.423C60.3487 408.842 60.2644 409.22 60.0957 409.558C59.9271 409.89 59.6856 410.175 59.3711 410.412C59.0612 410.645 58.6875 410.825 58.25 410.952C57.8171 411.075 57.334 411.137 56.8008 411.137C56.3223 411.137 55.8506 411.073 55.3858 410.945C54.9255 410.818 54.5062 410.624 54.128 410.364C53.7497 410.1 53.4489 409.772 53.2256 409.38C53.0023 408.983 52.8907 408.521 52.8907 407.992H54.6065C54.6065 408.316 54.6612 408.591 54.7705 408.819C54.8845 409.047 55.0417 409.234 55.2422 409.38C55.4427 409.521 55.6752 409.626 55.9395 409.694C56.2084 409.763 56.4955 409.797 56.8008 409.797C57.2019 409.797 57.5368 409.74 57.8057 409.626C58.0791 409.512 58.2842 409.353 58.4209 409.147C58.5577 408.942 58.626 408.705 58.626 408.437ZM64.8229 411.137C64.2761 411.137 63.7816 411.048 63.3395 410.87C62.902 410.688 62.5283 410.435 62.2184 410.111C61.9131 409.788 61.6784 409.407 61.5143 408.97C61.3503 408.532 61.2682 408.061 61.2682 407.555V407.281C61.2682 406.702 61.3526 406.178 61.5212 405.709C61.6898 405.24 61.9245 404.839 62.2253 404.506C62.5261 404.169 62.8815 403.911 63.2917 403.733C63.7018 403.556 64.1462 403.467 64.6247 403.467C65.1533 403.467 65.6159 403.556 66.0124 403.733C66.4089 403.911 66.737 404.162 66.9968 404.485C67.2611 404.804 67.457 405.185 67.5846 405.627C67.7168 406.069 67.7829 406.557 67.7829 407.09V407.794H62.068V406.611H66.1559V406.481C66.1468 406.185 66.0876 405.907 65.9782 405.647C65.8734 405.388 65.7116 405.178 65.4929 405.019C65.2741 404.859 64.9824 404.779 64.6179 404.779C64.3444 404.779 64.1006 404.839 63.8864 404.957C63.6768 405.071 63.5013 405.237 63.36 405.456C63.2188 405.675 63.1094 405.939 63.0319 406.249C62.959 406.554 62.9225 406.898 62.9225 407.281V407.555C62.9225 407.878 62.9658 408.179 63.0524 408.457C63.1436 408.73 63.2757 408.97 63.4489 409.175C63.6221 409.38 63.8317 409.542 64.0778 409.66C64.3239 409.774 64.6042 409.831 64.9186 409.831C65.3151 409.831 65.6683 409.751 65.9782 409.592C66.2881 409.432 66.557 409.207 66.7848 408.915L67.653 409.756C67.4935 409.988 67.2861 410.212 67.0309 410.426C66.7757 410.635 66.4636 410.806 66.0944 410.938C65.7298 411.071 65.306 411.137 64.8229 411.137ZM70.5618 405.183V411H68.9144V403.604H70.4661L70.5618 405.183ZM70.2679 407.028L69.7347 407.021C69.7392 406.497 69.8122 406.017 69.9534 405.579C70.0993 405.142 70.2998 404.766 70.555 404.451C70.8148 404.137 71.1247 403.895 71.4847 403.727C71.8447 403.553 72.2458 403.467 72.6878 403.467C73.0433 403.467 73.3646 403.517 73.6517 403.617C73.9433 403.713 74.1917 403.87 74.3968 404.089C74.6064 404.308 74.7659 404.592 74.8753 404.943C74.9847 405.29 75.0394 405.716 75.0394 406.222V411H73.3851V406.215C73.3851 405.859 73.3327 405.579 73.2279 405.374C73.1276 405.164 72.9795 405.016 72.7835 404.93C72.5921 404.839 72.3529 404.793 72.0657 404.793C71.7832 404.793 71.5303 404.852 71.307 404.971C71.0836 405.089 70.8945 405.251 70.7396 405.456C70.5892 405.661 70.473 405.898 70.3909 406.167C70.3089 406.436 70.2679 406.723 70.2679 407.028ZM81.0927 409.469V400.5H82.747V411H81.25L81.0927 409.469ZM76.2802 407.384V407.24C76.2802 406.68 76.3463 406.169 76.4785 405.709C76.6106 405.244 76.802 404.845 77.0527 404.513C77.3033 404.175 77.6087 403.918 77.9687 403.74C78.3287 403.558 78.7343 403.467 79.1855 403.467C79.6321 403.467 80.0241 403.553 80.3613 403.727C80.6985 403.9 80.9856 404.148 81.2226 404.472C81.4596 404.791 81.6487 405.174 81.79 405.62C81.9313 406.062 82.0315 406.554 82.0908 407.097V407.555C82.0315 408.083 81.9313 408.566 81.79 409.004C81.6487 409.441 81.4596 409.82 81.2226 410.139C80.9856 410.458 80.6963 410.704 80.3545 410.877C80.0172 411.05 79.623 411.137 79.1718 411.137C78.7252 411.137 78.3219 411.043 77.9619 410.856C77.6064 410.67 77.3033 410.408 77.0527 410.07C76.802 409.733 76.6106 409.337 76.4785 408.881C76.3463 408.421 76.2802 407.922 76.2802 407.384ZM77.9277 407.24V407.384C77.9277 407.721 77.9573 408.035 78.0166 408.327C78.0804 408.619 78.1783 408.876 78.3105 409.1C78.4427 409.318 78.6136 409.492 78.8232 409.619C79.0374 409.742 79.2926 409.804 79.5888 409.804C79.9625 409.804 80.2701 409.722 80.5117 409.558C80.7532 409.394 80.9423 409.173 81.0791 408.895C81.2203 408.612 81.316 408.298 81.3662 407.951V406.714C81.3388 406.445 81.2819 406.194 81.1953 405.962C81.1132 405.729 81.0016 405.527 80.8603 405.354C80.719 405.176 80.5436 405.039 80.3339 404.943C80.1289 404.843 79.8851 404.793 79.6025 404.793C79.3017 404.793 79.0465 404.857 78.8369 404.984C78.6272 405.112 78.4541 405.287 78.3173 405.511C78.1852 405.734 78.0872 405.994 78.0234 406.29C77.9596 406.586 77.9277 406.903 77.9277 407.24Z" fill="white"/>
<path d="M114.666 404L117.999 407.333L121.333 404H114.666Z" fill="white"/>
<g clip-path="url(#clip2_518_25468)">
<circle cx="162" cy="406" r="19" fill="black" fill-opacity="0.05"/>
<path d="M155.584 410.583V412.417H168.417V410.583H155.584ZM159.709 406.733H164.292L165.117 408.75H167.042L162.688 398.667H161.313L156.959 408.75H158.884L159.709 406.733ZM162.001 400.482L163.715 405.083H160.286L162.001 400.482Z" fill="#202124"/>
</g>
<path d="M200.124 400.5V411.042C200.124 413.068 198.484 414.708 196.458 414.708C194.432 414.708 192.791 413.068 192.791 411.042V399.583C192.791 398.318 193.818 397.292 195.083 397.292C196.348 397.292 197.374 398.318 197.374 399.583V409.208C197.374 409.713 196.962 410.125 196.458 410.125C195.954 410.125 195.541 409.713 195.541 409.208V400.5H194.166V409.208C194.166 410.473 195.193 411.5 196.458 411.5C197.723 411.5 198.749 410.473 198.749 409.208V399.583C198.749 397.558 197.109 395.917 195.083 395.917C193.057 395.917 191.416 397.558 191.416 399.583V411.042C191.416 413.828 193.671 416.083 196.458 416.083C199.244 416.083 201.499 413.828 201.499 411.042V400.5H200.124Z" fill="black" fill-opacity="0.54"/>
<path d="M220.576 406C220.576 404.433 221.85 403.158 223.417 403.158H227.084V401.417H223.417C220.887 401.417 218.834 403.47 218.834 406C218.834 408.53 220.887 410.583 223.417 410.583H227.084V408.842H223.417C221.85 408.842 220.576 407.568 220.576 406ZM224.334 406.917H231.667V405.083H224.334V406.917ZM232.584 401.417H228.917V403.158H232.584C234.151 403.158 235.426 404.433 235.426 406C235.426 407.568 234.151 408.842 232.584 408.842H228.917V410.583H232.584C235.114 410.583 237.167 408.53 237.167 406C237.167 403.47 235.114 401.417 232.584 401.417Z" fill="black" fill-opacity="0.54"/>
<path d="M259.991 396.833C254.931 396.833 250.834 400.94 250.834 406C250.834 411.06 254.931 415.167 259.991 415.167C265.061 415.167 269.167 411.06 269.167 406C269.167 400.94 265.061 396.833 259.991 396.833ZM260.001 413.333C255.949 413.333 252.667 410.052 252.667 406C252.667 401.948 255.949 398.667 260.001 398.667C264.052 398.667 267.334 401.948 267.334 406C267.334 410.052 264.052 413.333 260.001 413.333ZM263.209 405.083C263.97 405.083 264.584 404.469 264.584 403.708C264.584 402.947 263.97 402.333 263.209 402.333C262.448 402.333 261.834 402.947 261.834 403.708C261.834 404.469 262.448 405.083 263.209 405.083ZM256.792 405.083C257.553 405.083 258.167 404.469 258.167 403.708C258.167 402.947 257.553 402.333 256.792 402.333C256.031 402.333 255.417 402.947 255.417 403.708C255.417 404.469 256.031 405.083 256.792 405.083ZM260.001 411.042C262.136 411.042 263.951 409.703 264.685 407.833H255.316C256.05 409.703 257.865 411.042 260.001 411.042Z" fill="black" fill-opacity="0.54"/>
<path fill-rule="evenodd" clip-rule="evenodd" d="M286.187 414.708C285.527 414.708 284.922 414.36 284.602 413.792L282.438 410.033C282.108 409.465 282.117 408.768 282.447 408.2L288.259 398.199C288.589 397.64 289.194 397.292 289.845 397.292H291.499H291.99H294.144C294.795 397.292 295.4 397.64 295.73 398.199L301.542 408.2C301.872 408.768 301.881 409.465 301.551 410.033L299.388 413.792C299.067 414.36 298.462 414.708 297.802 414.708H291.999L291.99 414.674V414.708H286.187ZM291.499 412.875H291.99H297.802L299.956 409.126L294.144 399.125H291.999L291.99 399.09V399.125H289.845L284.033 409.126L286.187 412.875H291.499ZM287.645 410.583L286.976 409.419L291.174 402.104H291.499H291.99H292.815L297.013 409.419L296.344 410.583H291.99H291.499H287.645ZM291.499 408.75H291.99H294.511L291.999 404.341L291.99 404.299V404.341L289.478 408.75H291.499Z" fill="black" fill-opacity="0.54"/>
<path d="M332.25 412.417V399.583C332.25 398.575 331.425 397.75 330.417 397.75H317.583C316.575 397.75 315.75 398.575 315.75 399.583V412.417C315.75 413.425 316.575 414.25 317.583 414.25H330.417C331.425 414.25 332.25 413.425 332.25 412.417ZM320.792 407.375L323.083 410.134L326.292 406L330.417 411.5H317.583L320.792 407.375Z" fill="black" fill-opacity="0.54"/>
<path d="M358.292 408.017L360.951 409.575L360.217 410.767L356.917 408.75V404.167H358.292V408.017ZM365.167 407.833C365.167 411.876 361.876 415.167 357.834 415.167C355.982 415.167 354.296 414.47 353.003 413.333H348.667C347.613 413.333 346.834 412.554 346.834 411.5V403.25C346.834 402.223 347.65 401.453 348.667 401.417V400.958C348.667 398.676 350.51 396.833 352.792 396.833C354.937 396.833 356.679 398.474 356.881 400.573C357.192 400.527 357.513 400.5 357.834 400.5C361.876 400.5 365.167 403.791 365.167 407.833ZM350.501 401.417H355.084V400.738C354.974 399.574 353.984 398.667 352.792 398.667C351.527 398.667 350.501 399.693 350.501 400.958V401.417ZM363.334 407.833C363.334 404.799 360.868 402.333 357.834 402.333C354.8 402.333 352.334 404.799 352.334 407.833C352.334 410.867 354.8 413.333 357.834 413.333C360.868 413.333 363.334 410.867 363.334 407.833Z" fill="black" fill-opacity="0.54"/>
<path fill-rule="evenodd" clip-rule="evenodd" d="M389.53 397.97C389.237 397.677 388.763 397.677 388.47 397.97L383.47 402.97C383.177 403.263 383.177 403.737 383.47 404.03C383.763 404.323 384.237 404.323 384.53 404.03L389 399.561L390.268 400.829L388.043 403.082L391.481 406.519L396.234 401.706C396.592 401.348 396.592 400.771 396.234 400.413L394.089 398.268C393.732 397.911 393.154 397.911 392.797 398.268L391.322 399.761L389.53 397.97ZM380 414.502V411.065L387.063 404.062L390.5 407.5L383.438 414.502H380Z" fill="black" fill-opacity="0.54"/>
<path d="M546.001 401.667C546.917 401.667 547.667 400.917 547.667 400C547.667 399.083 546.917 398.333 546.001 398.333C545.084 398.333 544.334 399.083 544.334 400C544.334 400.917 545.084 401.667 546.001 401.667ZM546.001 403.333C545.084 403.333 544.334 404.083 544.334 405C544.334 405.917 545.084 406.667 546.001 406.667C546.917 406.667 547.667 405.917 547.667 405C547.667 404.083 546.917 403.333 546.001 403.333ZM546.001 408.333C545.084 408.333 544.334 409.083 544.334 410C544.334 410.917 545.084 411.667 546.001 411.667C546.917 411.667 547.667 410.917 547.667 410C547.667 409.083 546.917 408.333 546.001 408.333Z" fill="#767676"/>
<path d="M568.501 411.417C568.501 412.425 569.326 413.25 570.334 413.25H577.667C578.676 413.25 579.501 412.425 579.501 411.417V400.417H568.501V411.417ZM580.417 397.667H577.209L576.292 396.75H571.709L570.792 397.667H567.584V399.5H580.417V397.667Z" fill="black" fill-opacity="0.54"/>
<rect x="32" y="136" width="80" height="10" fill="#F0F1F2"/>
<rect x="32" y="319" width="60" height="10" fill="#F0F1F2"/>
<rect x="32" y="341" width="40" height="10" fill="#F0F1F2"/>
<rect x="32" y="65" width="120" height="10" fill="#F0F1F2"/>
<rect x="32" y="100" width="160" height="10" fill="#F0F1F2"/>
<defs>
<filter id="filter0_d_518_25468" x="0" y="0" width="625" height="460" filterUnits="userSpaceOnUse" color-interpolation-filters="sRGB">
<feFlood flood-opacity="0" result="BackgroundImageFix"/>
<feColorMatrix in="SourceAlpha" type="matrix" values="0 0 0 0 0 0 0 0 0 0 0 0 0 0 0 0 0 0 127 0" result="hardAlpha"/>
<feOffset dy="4"/>
<feGaussianBlur stdDeviation="8"/>
<feComposite in2="hardAlpha" operator="out"/>
<feColorMatrix type="matrix" values="0 0 0 0 0 0 0 0 0 0 0 0 0 0 0 0 0 0 0.16 0"/>
<feBlend mode="normal" in2="BackgroundImageFix" result="effect1_dropShadow_518_25468"/>
<feBlend mode="normal" in="SourceGraphic" in2="effect1_dropShadow_518_25468" result="shape"/>
</filter>
<clipPath id="clip0_518_25468">
<path d="M16 20C16 15.5817 19.5817 12 24 12H601C605.418 12 609 15.5817 609 20V432C609 436.418 605.418 440 601 440H24C19.5817 440 16 436.418 16 432V20Z" fill="white"/>
</clipPath>
<clipPath id="clip1_518_25468">
<rect width="10" height="10" fill="white" transform="translate(594 37) rotate(-180)"/>
</clipPath>
<clipPath id="clip2_518_25468">
<rect x="148" y="392" width="28" height="28" rx="2" fill="white"/>
</clipPath>
</defs>
</svg>
