<svg width="14" height="14" viewBox="0 0 14 14" fill="none" xmlns="http://www.w3.org/2000/svg">
<path d="M7 14C3.13401 14 -1.68988e-07 10.866 0 7C1.68988e-07 3.13401 3.13401 -1.68988e-07 7 0C10.866 1.68988e-07 14 3.13401 14 7C14 10.866 10.866 14 7 14Z" fill="#FFDB44"/>
<path d="M13.5593 4.55C12.5662 1.89233 10.0041 1.31312e-07 7 0C3.99593 -1.31312e-07 1.43384 1.89233 0.440726 4.55L13.5593 4.55Z" fill="#D90026"/>
<path d="M0.440726 9.45C1.43384 12.1077 3.99593 14 7 14C10.0041 14 12.5662 12.1077 13.5593 9.45L0.440726 9.45Z" fill="#D90026"/>
<circle cx="7" cy="7" r="6.875" stroke="#E3E5E8" stroke-width="0.25"/>
</svg>
