<svg width="16" height="16" viewBox="0 0 16 16" fill="none" xmlns="http://www.w3.org/2000/svg">
<path fill-rule="evenodd" clip-rule="evenodd" d="M8.00174 2.25C4.82514 2.25 2.25 4.82514 2.25 8.00174C2.25 11.1783 4.82514 13.7535 8.00174 13.7535C11.1783 13.7535 13.7535 11.1783 13.7535 8.00174C13.7535 4.82514 11.1783 2.25 8.00174 2.25ZM0.75 8.00174C0.75 3.99671 3.99671 0.75 8.00174 0.75C12.0068 0.75 15.2535 3.99671 15.2535 8.00174C15.2535 12.0068 12.0068 15.2535 8.00174 15.2535C3.99671 15.2535 0.75 12.0068 0.75 8.00174ZM8.75296 7.25199V8.00199V10.6027V11.3527H7.25296V10.6027V8.00199V7.25199H8.75296ZM8.00296 4.6511H7.25296V6.1511H8.00296H8.00963H8.75963V4.6511H8.00963H8.00296Z" fill="#6A7482"/>
</svg>
