<svg width="16" height="16" viewBox="0 0 16 16" fill="none" xmlns="http://www.w3.org/2000/svg">
<path fill-rule="evenodd" clip-rule="evenodd" d="M2.75 7.33333C2.75 4.80203 4.80203 2.75 7.33333 2.75C9.86464 2.75 11.9167 4.80203 11.9167 7.33333C11.9167 8.51211 11.4717 9.58695 10.7405 10.399L10.399 10.7405C9.58695 11.4717 8.51211 11.9167 7.33333 11.9167C4.80203 11.9167 2.75 9.86464 2.75 7.33333ZM11.0719 12.1326C10.0405 12.9373 8.74289 13.4167 7.33333 13.4167C3.9736 13.4167 1.25 10.6931 1.25 7.33333C1.25 3.9736 3.9736 1.25 7.33333 1.25C10.6931 1.25 13.4167 3.9736 13.4167 7.33333C13.4167 8.74289 12.9373 10.0405 12.1326 11.0719L14.5304 13.4698L15.0608 14.0001L14.0001 15.0608L13.4698 14.5304L11.0719 12.1326Z" fill="#C0C0C0"/>
</svg>
