<svg width="9" height="9" viewBox="0 0 9 9" fill="none" xmlns="http://www.w3.org/2000/svg">
<path fill-rule="evenodd" clip-rule="evenodd" d="M2.67067 0H2.17067V0.5V1.30238H1.83618L1.83403 1.27023L1.35175 1.30238H0.5H0V2.30238H0.5H0.900624L1.30363 8.34748L1.33475 8.81422H1.80252H7.012H7.47977L7.51089 8.34748L7.91389 2.30238H8.31421H8.81421V1.30238H8.31421H7.46277L6.98048 1.27023L6.97834 1.30238H6.64365V0.5V0H6.14365H2.67067ZM6.91167 2.30238H1.90284L2.2703 7.81422H6.54422L6.91167 2.30238ZM5.64365 1.30238V1H3.17067V1.30238H5.64365ZM4.03885 3.03874V3.53874V6.5776V7.0776H3.03885V6.5776V3.53874V3.03874H4.03885ZM5.77534 3.03874V3.53874V6.5776V7.0776H4.77534V6.5776V3.53874V3.03874H5.77534Z" fill="#474747"/>
</svg>
