<svg width="14" height="14" viewBox="0 0 14 14" fill="none" xmlns="http://www.w3.org/2000/svg">
<circle cx="7" cy="7" r="7" fill="white"/>
<mask id="mask0_263_2562" style="mask-type:alpha" maskUnits="userSpaceOnUse" x="0" y="0" width="14" height="14">
<circle cx="7" cy="7" r="7" fill="#FCFCFC"/>
</mask>
<g mask="url(#mask0_263_2562)">
<rect x="2.27502" y="12.425" width="9.625" height="1.75" fill="#D90026"/>
<rect x="2.27502" y="12.425" width="9.625" height="1.75" fill="#D90026"/>
<rect x="0.175049" y="8.92505" width="13.825" height="1.75" fill="#D90026"/>
<rect x="0.175049" y="8.92505" width="13.825" height="1.75" fill="#D90026"/>
<rect x="0.175049" y="5.25" width="13.825" height="1.75" fill="#D90026"/>
<rect x="0.175049" y="5.25" width="13.825" height="1.75" fill="#D90026"/>
<rect x="0.175049" y="1.75" width="13.825" height="1.75" fill="#D90026"/>
<rect x="0.175049" y="1.75" width="13.825" height="1.75" fill="#D90026"/>
<rect width="7.175" height="7" fill="#0052B5"/>
<path d="M5.77495 5.86248L5.24995 6.12498L5.42495 5.59998L5.07495 5.24998H5.59995L5.77495 4.72498L6.03745 5.24998H6.47495L6.12495 5.59998L6.29995 6.12498L5.77495 5.86248Z" fill="white"/>
<path d="M3.325 5.86248L2.8 6.12498L2.975 5.59998L2.625 5.24998H3.15L3.325 4.72498L3.5875 5.24998H4.025L3.675 5.59998L3.85 6.12498L3.325 5.86248Z" fill="white"/>
<path d="M0.875049 5.86248L0.350049 6.12498L0.525049 5.59998L0.175049 5.24998H0.700049L0.875049 4.72498L1.13755 5.24998H1.57505L1.22505 5.59998L1.40005 6.12498L0.875049 5.86248Z" fill="white"/>
<path d="M5.77495 3.93755L5.24995 4.20005L5.42495 3.67505L5.07495 3.32505H5.59995L5.77495 2.80005L6.03745 3.32505H6.47495L6.12495 3.67505L6.29995 4.20005L5.77495 3.93755Z" fill="white"/>
<path d="M5.77495 2.0125L5.24995 2.275L5.42495 1.75L5.07495 1.4H5.59995L5.77495 0.875L6.03745 1.4H6.47495L6.12495 1.75L6.29995 2.275L5.77495 2.0125Z" fill="white"/>
<path d="M5.77495 0.0874511L5.24995 0.349951L5.42495 -0.175049L5.07495 -0.525049H5.59995L5.77495 -1.05005L6.03745 -0.525049H6.47495L6.12495 -0.175049L6.29995 0.349951L5.77495 0.0874511Z" fill="white"/>
<path d="M3.325 2.0125L2.8 2.275L2.975 1.75L2.625 1.4H3.15L3.325 0.875L3.5875 1.4H4.025L3.675 1.75L3.85 2.275L3.325 2.0125Z" fill="white"/>
<path d="M3.325 3.93755L2.8 4.20005L2.975 3.67505L2.625 3.32505H3.15L3.325 2.80005L3.5875 3.32505H4.025L3.675 3.67505L3.85 4.20005L3.325 3.93755Z" fill="white"/>
<path d="M0.875049 3.93755L0.350049 4.20005L0.525049 3.67505L0.175049 3.32505H0.700049L0.875049 2.80005L1.13755 3.32505H1.57505L1.22505 3.67505L1.40005 4.20005L0.875049 3.93755Z" fill="white"/>
</g>
<circle cx="7" cy="7" r="6.875" stroke="#E3E5E8" stroke-width="0.25"/>
</svg>
