<svg width="14" height="14" viewBox="0 0 14 14" fill="none" xmlns="http://www.w3.org/2000/svg">
<path d="M14 7C14 10.866 10.866 14 7 14C3.13401 14 0 10.866 0 7C0 3.13401 3.13401 0 7 0C10.866 0 14 3.13401 14 7Z" fill="white"/>
<path d="M4.55 0.440725C1.89233 1.43384 0 3.99593 0 7C0 10.0041 1.89233 12.5662 4.55 13.5593V0.440725Z" fill="#6EA644"/>
<path d="M9.45 13.5593C12.1077 12.5662 14 10.0041 14 7C14 3.99593 12.1077 1.43384 9.45 0.440725L9.45 13.5593Z" fill="#D90026"/>
<circle cx="7" cy="7" r="6.875" stroke="#E3E5E8" stroke-width="0.25"/>
</svg>
